<?xml version="1.0" encoding="utf-8"?>
<!-- Generator: Adobe Illustrator 20.0.0, SVG Export Plug-In . SVG Version: 6.00 Build 0)  -->
<svg version="1.1" id="Layer_1" xmlns="http://www.w3.org/2000/svg" xmlns:xlink="http://www.w3.org/1999/xlink" x="0px" y="0px"
	 viewBox="0 0 194 194" style="enable-background:new 0 0 194 194;" xml:space="preserve">
<style type="text/css">
	.st0{display:none;}
	.st1{fill:#F3F3F3;}
	.st2{fill:#0D457F;}
	.st3{fill:#2F86C7;}
	.st4{fill:#FFFFFF;}
</style>
<g id="_x33_.1-circle" class="st0">
</g>
<g id="_x33_.1-card3" class="st0">
</g>
<g id="_x33_.1-card2" class="st0">
</g>
<g id="_x33_.1-card1" class="st0">
</g>
<g id="_x32_.1-circle" class="st0">
</g>
<g id="_x32_.1-plane3" class="st0">
</g>
<g id="_x32_.1-plane2" class="st0">
</g>
<g id="_x32_.1-plane1" class="st0">
</g>
<g id="_x31_.1-circle" class="st0">
</g>
<g id="_x33_-circle" class="st0">
</g>
<g id="_x33_-card" class="st0">
</g>
<g id="_x32_-circle" class="st0">
</g>
<g id="_x32_-plane" class="st0">
</g>
<g id="_x31_-circle">
</g>
<g id="_x31_.1-loc5">
</g>
<g id="_x31_.1-loc4">
</g>
<g id="_x31_.1-loc3">
</g>
<g id="_x31_.1-loc2">
</g>
<g id="_x31_.1-loc1">
</g>
<circle class="st1" cx="97" cy="97" r="97"/>
<path class="st2" d="M71,104.4c9.2,18.1,24.2,34,24.2,34c0.6,0.4,1.4,0.4,1.8,0c0,0,32-33.1,32-58.3c0-10-3.3-18.5-9.5-24.4
	L71,104.4z"/>
<path class="st3" d="M96.9,47.5h-1.4c-20.7,0-31.7,13.4-31.7,32.3c0,7.8,3.1,16.4,7.1,24.6l48.6-48.7
	C114.1,50.5,106.5,47.5,96.9,47.5z"/>
<path class="st4" d="M105.5,75.2l1.8-2.6c3.9-5.7,1.3-12-6.4-12H84.6v37.3h15.6C114,97.7,118.2,81.7,105.5,75.2z M96,92.3h-2.6V65.1
	h4.7c2.4,0,4.3,1.9,4.3,4.2c0,0.8-0.1,1.5-1,2.6l-3.1,4.6c3.2,0.8,5.4,3.2,5.4,7.8C103.8,89.9,100.5,92.3,96,92.3z"/>
</svg>
