<?xml version="1.0" encoding="utf-8"?>
<!-- Generator: Adobe Illustrator 16.0.4, SVG Export Plug-In . SVG Version: 6.00 Build 0)  -->
<!DOCTYPE svg PUBLIC "-//W3C//DTD SVG 1.1//EN" "http://www.w3.org/Graphics/SVG/1.1/DTD/svg11.dtd">
<svg version="1.1" id="Capa_1" xmlns="http://www.w3.org/2000/svg" xmlns:xlink="http://www.w3.org/1999/xlink" x="0px" y="0px"
	 width="592px" height="81px" viewBox="0 0 592 81" enable-background="new 0 0 592 81" xml:space="preserve">
<title>bbvacompass-white</title>
<desc>Created with Sketch.</desc>
<g id="Capa_1_1_" xmlns:sketch="http://www.bohemiancoding.com/sketch/ns">
	<g id="Icons_new_Arranged_Names">
		<g>
			<g id="_x32_7_Cloud_8_">
				<path id="Rectangle_1_copy_2_8_" fill="#FFFFFF" d="M1,55.742c0-8.832,4.804-16.557,11.954-20.695
					C13.368,15.62,29.249,0,48.775,0c12.872,0,24.161,6.788,30.48,16.984c2.327-0.689,4.794-1.059,7.345-1.059
					c11.087,0,20.544,6.972,24.232,16.77c10.125,2.768,17.572,12.034,17.572,23.047c0,13.166-10.695,23.889-23.888,23.889H24.89
					C11.701,79.629,1,68.936,1,55.742z M104.407,39.815c-0.991-8.959-8.586-15.926-17.808-15.926c-4.207,0-8.082,1.453-11.135,3.882
					C72.004,16.308,61.368,7.963,48.775,7.963c-15.392,0-27.868,12.478-27.868,27.869c0,1.499,0.118,2.966,0.344,4.397
					c-7.04,1.645-12.288,7.975-12.288,15.512c0,8.797,7.144,15.926,15.911,15.926h79.651c8.793,0,15.917-7.147,15.917-15.926
					c0-8.796-7.146-15.928-15.917-15.928L104.407,39.815L104.407,39.815z"/>
			</g>
		</g>
	</g>
</g>
<g>
	<path fill="#FFFFFF" d="M188.869,9.927c2.924,0,5.653,0.552,8.188,1.656c2.535,1.104,4.742,2.596,6.627,4.477
		c1.883,1.884,3.378,4.088,4.482,6.62c1.105,2.529,1.658,5.255,1.658,8.174v26.279c0,2.919-0.553,5.643-1.658,8.178
		c-1.104,2.529-2.6,4.735-4.482,6.615c-1.885,1.885-4.092,3.375-6.627,4.479c-2.534,1.103-5.263,1.655-8.188,1.655h-10.525
		c-2.925,0-5.65-0.555-8.188-1.655c-2.532-1.104-4.741-2.595-6.627-4.479c-1.886-1.88-3.377-4.088-4.483-6.615
		c-1.104-2.53-1.657-5.259-1.657-8.178v-26.28c0-2.919,0.553-5.645,1.657-8.175c1.104-2.531,2.598-4.735,4.483-6.619
		c1.886-1.881,4.095-3.373,6.627-4.477c2.535-1.102,5.262-1.656,8.188-1.656L188.869,9.927L188.869,9.927z M194.132,30.853
		c0-1.425-0.502-2.643-1.511-3.65c-1.008-1.004-2.258-1.509-3.752-1.509h-10.525c-1.494,0-2.746,0.504-3.752,1.509
		c-1.008,1.008-1.511,2.224-1.511,3.65v26.28c0,1.426,0.503,2.66,1.511,3.696c1.006,1.041,2.258,1.56,3.752,1.56h10.525
		c1.494,0,2.745-0.519,3.752-1.56c1.008-1.036,1.511-2.271,1.511-3.696V30.853z"/>
	<path fill="#FFFFFF" d="M249.228,9.927c2.922,0,5.653,0.552,8.187,1.656s4.74,2.596,6.627,4.477
		c1.883,1.884,3.378,4.088,4.483,6.62c1.104,2.529,1.657,5.255,1.657,8.174c0,2.918-0.553,5.644-1.657,8.176
		c-1.104,2.53-2.601,4.756-4.483,6.668c-1.887,1.913-4.093,3.423-6.627,4.526c-2.534,1.103-5.265,1.653-8.187,1.653h-15.789v26.183
		h-15.692V9.927h15.692H249.228z M249.228,36.109c1.494,0,2.744-0.503,3.751-1.51c1.008-1.006,1.511-2.253,1.511-3.746
		c0-1.425-0.503-2.643-1.511-3.65c-1.007-1.004-2.256-1.509-3.751-1.509h-15.789v10.414L249.228,36.109L249.228,36.109z"/>
	<path fill="#FFFFFF" d="M294.79,27.203c-1.008,1.008-1.511,2.224-1.511,3.65v5.256h36.746v15.767h-36.746v5.256
		c0,1.431,0.503,2.664,1.511,3.7c1.008,1.037,2.258,1.559,3.755,1.559h31.479v15.672h-31.479c-2.924,0-5.653-0.554-8.188-1.655
		c-2.534-1.104-4.744-2.595-6.627-4.479c-1.884-1.88-3.379-4.088-4.485-6.613c-1.104-2.532-1.656-5.26-1.656-8.182v-26.28
		c0-2.919,0.552-5.645,1.656-8.175c1.105-2.531,2.601-4.735,4.485-6.619c1.884-1.881,4.094-3.373,6.627-4.477
		c2.532-1.102,5.264-1.656,8.188-1.656h31.479v15.768h-31.479C297.047,25.694,295.798,26.199,294.79,27.203z"/>
	<path fill="#FFFFFF" d="M338.141,30.853c0-2.919,0.553-5.645,1.658-8.175c1.104-2.531,2.597-4.735,4.484-6.619
		c1.884-1.881,4.093-3.373,6.624-4.477c2.536-1.102,5.265-1.656,8.188-1.656h10.525c2.925,0,5.649,0.553,8.188,1.656
		c2.535,1.104,4.742,2.596,6.627,4.477c1.885,1.884,3.377,4.088,4.482,6.619c1.104,2.529,1.658,5.256,1.658,8.175v47.206h-15.688
		V30.853c0-1.425-0.507-2.66-1.515-3.699c-1.009-1.037-2.256-1.557-3.752-1.557h-10.523c-1.497,0-2.75,0.521-3.756,1.557
		c-1.007,1.039-1.51,2.273-1.51,3.699v47.206H338.14L338.141,30.853L338.141,30.853z"/>
</g>
<g>
	<path fill="#FFFFFF" d="M467.049,9.617v47.875c0,2.961-0.562,5.728-1.682,8.291c-1.121,2.568-2.637,4.807-4.546,6.713
		c-1.914,1.91-4.152,3.423-6.724,4.541c-2.568,1.119-5.339,1.677-8.303,1.677c-2.505,0-4.895-0.407-7.168-1.231
		c-2.271-0.822-4.334-1.957-6.179-3.403c-1.777,1.446-3.809,2.581-6.078,3.403c-2.273,0.824-4.663,1.231-7.166,1.231
		c-2.967,0-5.732-0.558-8.303-1.677c-2.571-1.12-4.827-2.631-6.771-4.541c-1.945-1.906-3.478-4.145-4.599-6.713
		c-1.119-2.565-1.68-5.328-1.68-8.291V9.617h16.014v47.875c0,1.451,0.508,2.701,1.533,3.754c1.021,1.053,2.287,1.576,3.805,1.576
		c1.517,0,2.784-0.525,3.806-1.576c1.022-1.053,1.533-2.303,1.533-3.754V36.17h15.912v21.322c0,1.451,0.51,2.701,1.533,3.754
		c1.021,1.053,2.286,1.576,3.804,1.576c1.515,0,2.784-0.525,3.806-1.576c1.023-1.053,1.533-2.303,1.533-3.754V9.617H467.049z"/>
	<path fill="#FFFFFF" d="M492.291,27.138c-1.021,1.022-1.531,2.256-1.531,3.702v5.33h37.268v15.991h-37.266v5.331
		c0,1.449,0.508,2.699,1.532,3.751c1.021,1.054,2.288,1.579,3.806,1.579h31.93v15.892h-31.932c-2.964,0-5.732-0.56-8.302-1.677
		c-2.571-1.12-4.812-2.631-6.722-4.541c-1.913-1.908-3.431-4.146-4.548-6.713c-1.122-2.565-1.681-5.328-1.681-8.291V30.84
		c0-2.96,0.559-5.725,1.681-8.291c1.119-2.566,2.633-4.803,4.548-6.713c1.908-1.908,4.148-3.421,6.722-4.54
		c2.569-1.119,5.336-1.679,8.302-1.679h31.93v15.991h-31.93C494.579,25.608,493.312,26.119,492.291,27.138z"/>
	<path fill="#FFFFFF" d="M589.733,30.84c0,2.501-0.415,4.886-1.235,7.157c-0.823,2.271-1.961,4.329-3.408,6.171
		c1.445,1.844,2.585,3.896,3.408,6.168s1.235,4.654,1.235,7.157c0,2.961-0.562,5.724-1.681,8.291
		c-1.122,2.565-2.637,4.803-4.548,6.713c-1.913,1.908-4.151,3.421-6.722,4.539c-2.568,1.119-5.338,1.679-8.302,1.679h-16.015
		h-15.916V9.617h15.916h16.015c2.964,0,5.731,0.56,8.302,1.679c2.567,1.12,4.809,2.632,6.722,4.54
		c1.909,1.909,3.426,4.146,4.548,6.712C589.176,25.116,589.733,27.88,589.733,30.84z M552.469,25.608V36.17h16.017
		c1.516,0,2.78-0.509,3.804-1.53c1.021-1.02,1.532-2.286,1.532-3.801c0-1.446-0.512-2.68-1.532-3.702
		c-1.021-1.02-2.288-1.53-3.804-1.53L552.469,25.608L552.469,25.608z M568.483,62.822c1.516,0,2.78-0.525,3.804-1.576
		c1.021-1.053,1.532-2.303,1.532-3.754c0-1.514-0.512-2.777-1.532-3.801c-1.021-1.02-2.288-1.53-3.804-1.53h-16.017v10.661H568.483z
		"/>
</g>
</svg>
