<?xml version="1.0" encoding="utf-8"?>
<!-- Generator: Adobe Illustrator 16.0.4, SVG Export Plug-In . SVG Version: 6.00 Build 0)  -->
<!DOCTYPE svg PUBLIC "-//W3C//DTD SVG 1.1//EN" "http://www.w3.org/Graphics/SVG/1.1/DTD/svg11.dtd">
<svg version="1.1" id="Capa_1" xmlns="http://www.w3.org/2000/svg" xmlns:xlink="http://www.w3.org/1999/xlink" x="0px" y="0px"
	 width="215.43px" height="85.04px" viewBox="0 0 215.43 85.04" enable-background="new 0 0 215.43 85.04" xml:space="preserve">
<path fill="#FFFFFF" d="M171.035,51.062l8.951-29.869l9.066,29.869H171.035z M186.212,9.342h-12.511l-20.028,65.446h10.2
	l4.301-14.093h23.791l4.322,14.093h17.738l-19.856-58.803C192.355,10.606,191.336,9.342,186.212,9.342z"/>
<path fill="#FFFFFF" d="M78.46,66.064h-4.654V17.859h8.411c4.05,0,7.543,3.34,7.543,7.375c0,1.424-0.265,2.75-1.651,4.74
	l-5.451,8.18c5.704,1.365,9.516,5.713,9.516,13.833C92.174,61.859,86.267,66.064,78.46,66.064 M94.978,34.992l3.213-4.741
	c6.754-10.033,2.106-20.923-11.259-20.923H58.398v65.48h27.516C110.111,74.809,117.357,46.628,94.978,34.992"/>
<path fill="#FFFFFF" d="M23.055,66.064h-4.616V17.859h8.37c4.057,0,7.578,3.34,7.578,7.375c0,1.424-0.261,2.75-1.67,4.74
	l-5.483,8.18c5.723,1.365,9.531,5.713,9.531,13.833C36.765,61.859,30.866,66.064,23.055,66.064 M39.573,34.992l3.188-4.741
	c6.782-10.033,2.135-20.923-11.265-20.923H3v65.48h27.518C54.691,74.809,62.005,46.628,39.573,34.992"/>
<path fill="#FFFFFF" d="M150.975,9.328L136.2,59.049l-12.427-41.19c-2.33-7.379-3.515-8.531-7.985-8.531h-11.554l21.417,65.459
	h15.728l19.953-65.459H150.975z"/>
</svg>
